<svg width="32" height="32" viewBox="0 0 32 32" fill="none" xmlns="http://www.w3.org/2000/svg">
<rect width="32" height="32" rx="9" fill="white"/>
<g clip-path="url(#clip0_2_7)">
<path d="M10.2263 13.8031C12.4074 13.8031 14.1755 12.0563 14.1755 9.90155C14.1755 7.74678 12.4074 6 10.2263 6C8.04526 6 6.27716 7.74678 6.27716 9.90155C6.27716 12.0563 8.04526 13.8031 10.2263 13.8031Z" fill="#094F0C"/>
<path fill-rule="evenodd" clip-rule="evenodd" d="M20.6705 7.77984C17.7973 7.82722 15.5183 10.2023 15.5183 13.043V15.1297H13.3185C10.4244 15.1297 8.07658 17.4472 8.07658 20.3085C8.07658 23.1677 10.4223 25.4872 13.3185 25.4872H20.7519C23.6501 25.4872 26 23.1656 26 20.3023V12.9586C26 10.0685 23.6042 7.73246 20.6684 7.7819L20.6705 7.77984Z" fill="#094F0C"/>
</g>
<defs>
<clipPath id="clip0_2_7">
<rect width="20" height="19.4872" fill="white" transform="translate(6 6)"/>
</clipPath>
</defs>
</svg>
