<svg width="48" height="48" viewBox="0 0 48 48" fill="none" xmlns="http://www.w3.org/2000/svg">
<rect width="48" height="48" rx="8" fill="#094F0C"/>
<path d="M24 24.25C24.8937 24.25 25.6591 23.9315 26.2961 23.2945C26.932 22.6586 27.25 21.8938 27.25 21C27.25 20.1062 26.932 19.3409 26.2961 18.7039C25.6591 18.068 24.8937 17.75 24 17.75C23.1062 17.75 22.3414 18.068 21.7055 18.7039C21.0685 19.3409 20.75 20.1062 20.75 21C20.75 21.8938 21.0685 22.6586 21.7055 23.2945C22.3414 23.9315 23.1062 24.25 24 24.25ZM24 36.1938C27.3042 33.1604 29.7552 30.4044 31.3531 27.9258C32.951 25.4482 33.75 23.2479 33.75 21.325C33.75 18.3729 32.8086 15.9555 30.9257 14.0726C29.044 12.1909 26.7354 11.25 24 11.25C21.2646 11.25 18.9555 12.1909 17.0726 14.0726C15.1909 15.9555 14.25 18.3729 14.25 21.325C14.25 23.2479 15.049 25.4482 16.6469 27.9258C18.2448 30.4044 20.6958 33.1604 24 36.1938ZM24 40.5C19.6396 36.7896 16.3831 33.343 14.2305 30.1601C12.0768 26.9784 11 24.0333 11 21.325C11 17.2625 12.307 14.026 14.9211 11.6156C17.5341 9.20521 20.5604 8 24 8C27.4396 8 30.4659 9.20521 33.0789 11.6156C35.693 14.026 37 17.2625 37 21.325C37 24.0333 35.9237 26.9784 33.7711 30.1601C31.6175 33.343 28.3604 36.7896 24 40.5Z" fill="#F8F7EF"/>
</svg>
