<svg width="144" height="129" viewBox="0 0 144 129" fill="none" xmlns="http://www.w3.org/2000/svg">
<path d="M81.97 8.93262L89.7399 3.24262C101.37 -5.26738 117.57 4.08263 116.01 18.4126L114.97 27.9826C114.19 35.1626 118.15 42.0226 124.76 44.9426L133.57 48.8326C146.76 54.6426 146.76 73.3526 133.57 79.1726L124.76 83.0626C118.15 85.9826 114.19 92.8426 114.97 100.023L116.01 109.593C117.57 123.923 101.37 133.273 89.7399 124.763L81.97 119.073C76.14 114.803 68.2199 114.803 62.3899 119.073L54.6199 124.763C42.9899 133.273 26.79 123.923 28.35 109.593L29.3899 100.023C30.1699 92.8426 26.21 85.9826 19.6 83.0626L10.79 79.1726C-2.40004 73.3626 -2.40004 54.6526 10.79 48.8326L19.6 44.9426C26.21 42.0226 30.1699 35.1626 29.3899 27.9826L28.35 18.4126C26.79 4.08263 42.9899 -5.26738 54.6199 3.24262L62.3899 8.93262C68.2199 13.2026 76.14 13.2026 81.97 8.93262Z" fill="#F8F7EE"/>
</svg>
